# OBJ generated by ONSHAPE BY PTC INC, 1.190 Units = meters
mtllib Bühne.mtl
g Part 1
v 0.0133628 -0.0286566 0.01 
v 0.00982807 -0.0252728 0.01 
v 0.0109567 -0.0264518 0.01 
v 0.000886732 -0.00809669 0.01 
v 0.0246141 -0.0351525 0.01 
v 0.0261596 -0.0356772 0.01 
v 0.0121357 -0.0275805 0.01 
v 0.0277265 -0.0361339 0.01 
v 0.0058585 -0.0200996 0.01 
v 0.0173089 -0.03155 0.01 
v 0.0187043 -0.0323967 0.01 
v 0.0146357 -0.0296782 0.01 
v 0.00875194 -0.0240457 0.01 
v 0.0201352 -0.0331818 0.01 
v 0.00350489 -0.0158095 0.01 
v 0.00422676 -0.0172733 0.01 
v 0.0293118 -0.0365218 0.01 
v 0.0159519 -0.0306433 0.01 
v 0.00773035 -0.0227729 0.01 
v 0.00676526 -0.0214567 0.01 
v 0.00501179 -0.0187043 0.01 
v 0.00225601 -0.0127945 0.01 
v 0.00284756 -0.0143156 0.01 
v 0.00127467 -0.00968204 0.01 
v 0 4.58122e-18 0.01 
v 0.0546819 -0.0331818 0.01 
v 0.0561128 -0.0323967 0.01 
v 0.0309126 -0.0368402 0.01 
v 0.0325257 -0.0370885 0.01 
v 0.0230929 -0.034561 0.01 
v 0.00173138 -0.011249 0.01 
v 0.0532181 -0.0339036 0.01 
v 0.0374085 -0.0374085 0.01 
v 0.0390403 -0.0373729 0.01 
v 0.021599 -0.0339036 0.01 
v 0.0341482 -0.0372662 0.01 
v 0.000142351 -0.00326037 0.01 
v 0.000320035 -0.00488279 0.01 
v 0.0730857 -0.011249 0.01 
v 0.0735424 -0.00968204 0.01 
v 0.0719695 -0.0143156 0.01 
v 0.0725611 -0.0127945 0.01 
v 0.0638604 -0.0264518 0.01 
v 0.064989 -0.0252728 0.01 
v 0.0601814 -0.0296782 0.01 
v 0.0614543 -0.0286566 0.01 
v 0.0575081 -0.03155 0.01 
v 0.0588652 -0.0306433 0.01 
v 0.0517242 -0.034561 0.01 
v 0.0486575 -0.0356772 0.01 
v 0.050203 -0.0351525 0.01 
v 0.0406689 -0.0372662 0.01 
v 0.0357768 -0.0373729 0.01 
v 0.00056832 -0.00649592 0.01 
v 3.56046e-05 -0.00163174 0.01 
v 0.074497 -0.00488279 0.01 
v 0.0746747 -0.00326037 0.01 
v 0.0739303 -0.00809669 0.01 
v 0.0742488 -0.00649592 0.01 
v 0.0705903 -0.0172733 0.01 
v 0.0713122 -0.0158095 0.01 
v 0.0689586 -0.0200996 0.01 
v 0.0698053 -0.0187043 0.01 
v 0.0660651 -0.0240457 0.01 
v 0.0670867 -0.0227729 0.01 
v 0.0626814 -0.0275805 0.01 
v 0.0455052 -0.0365218 0.01 
v 0.0470906 -0.0361339 0.01 
v 0.0422913 -0.0370885 0.01 
v 0.0439045 -0.0368402 0.01 
v 0.0747815 -0.00163174 0.01 
v 0.0680518 -0.0214567 0.01 
v 0.0748171 -9.16245e-18 0.01 
v 0.0748171 -9.16245e-18 0 
v 0 4.58122e-18 0 
v 0.0747815 -0.00163174 0 
v 0.0746747 -0.00326037 0 
v 0.074497 -0.00488279 0 
v 0.0742488 -0.00649592 0 
v 0.0739303 -0.00809669 0 
v 0.0735424 -0.00968204 0 
v 0.0730857 -0.011249 0 
v 0.0725611 -0.0127945 0 
v 0.0719695 -0.0143156 0 
v 0.0713122 -0.0158095 0 
v 0.0705903 -0.0172733 0 
v 0.0698053 -0.0187043 0 
v 0.0689586 -0.0200996 0 
v 0.0680518 -0.0214567 0 
v 0.0670867 -0.0227729 0 
v 0.0660651 -0.0240457 0 
v 0.064989 -0.0252728 0 
v 0.0638604 -0.0264518 0 
v 0.0626814 -0.0275805 0 
v 0.0614543 -0.0286566 0 
v 0.0601814 -0.0296782 0 
v 0.0588652 -0.0306433 0 
v 0.0575081 -0.03155 0 
v 0.0561128 -0.0323967 0 
v 0.0546819 -0.0331818 0 
v 0.0532181 -0.0339036 0 
v 0.0517242 -0.034561 0 
v 0.050203 -0.0351525 0 
v 0.0486575 -0.0356772 0 
v 0.0470906 -0.0361339 0 
v 0.0455052 -0.0365218 0 
v 0.0439045 -0.0368402 0 
v 0.0422913 -0.0370885 0 
v 0.0406689 -0.0372662 0 
v 0.0390403 -0.0373729 0 
v 0.0374085 -0.0374085 0 
v 0.0357768 -0.0373729 0 
v 0.0341482 -0.0372662 0 
v 0.0325257 -0.0370885 0 
v 0.0309126 -0.0368402 0 
v 0.0293118 -0.0365218 0 
v 0.0277265 -0.0361339 0 
v 0.0261596 -0.0356772 0 
v 0.0246141 -0.0351525 0 
v 0.0230929 -0.034561 0 
v 0.021599 -0.0339036 0 
v 0.0201352 -0.0331818 0 
v 0.0187043 -0.0323967 0 
v 0.0173089 -0.03155 0 
v 0.0159519 -0.0306433 0 
v 0.0146357 -0.0296782 0 
v 0.0133628 -0.0286566 0 
v 0.0121357 -0.0275805 0 
v 0.0109567 -0.0264518 0 
v 0.00982807 -0.0252728 0 
v 0.00875194 -0.0240457 0 
v 0.00773035 -0.0227729 0 
v 0.00676526 -0.0214567 0 
v 0.0058585 -0.0200996 0 
v 0.00501179 -0.0187043 0 
v 0.00422676 -0.0172733 0 
v 0.00350489 -0.0158095 0 
v 0.00284756 -0.0143156 0 
v 0.00225601 -0.0127945 0 
v 0.00173138 -0.011249 0 
v 0.00127467 -0.00968204 0 
v 0.000886732 -0.00809669 0 
v 0.00056832 -0.00649592 0 
v 0.000320035 -0.00488279 0 
v 0.000142351 -0.00326037 0 
v 3.56046e-05 -0.00163174 0 
vn 0 0 1 
vn 0 1 0 
vn 1 1.22465e-16 0 
vn 0.999048 -0.0436194 0 
vn 0.996195 -0.0871557 0 
vn 0.991445 -0.130526 0 
vn 0.984808 -0.173648 0 
vn 0.976296 -0.21644 0 
vn 0.965926 -0.258819 0 
vn 0.953717 -0.300706 0 
vn 0.939693 -0.34202 0 
vn 0.92388 -0.382683 0 
vn 0.906308 -0.422618 0 
vn 0.887011 -0.461749 0 
vn 0.866025 -0.5 0 
vn 0.843391 -0.5373 0 
vn 0.819152 -0.573576 0 
vn 0.793353 -0.608761 0 
vn 0.766044 -0.642788 0 
vn 0.737277 -0.67559 0 
vn 0.707107 -0.707107 0 
vn 0.67559 -0.737277 0 
vn 0.642788 -0.766044 0 
vn 0.608761 -0.793353 0 
vn 0.573576 -0.819152 0 
vn 0.5373 -0.843391 0 
vn 0.5 -0.866025 0 
vn 0.461749 -0.887011 0 
vn 0.422618 -0.906308 0 
vn 0.382683 -0.92388 0 
vn 0.34202 -0.939693 0 
vn 0.300706 -0.953717 0 
vn 0.258819 -0.965926 0 
vn 0.21644 -0.976296 0 
vn 0.173648 -0.984808 0 
vn 0.130526 -0.991445 0 
vn 0.0871557 -0.996195 0 
vn 0.0436194 -0.999048 0 
vn 1.83697e-16 -1 0 
vn -0.0436194 -0.999048 0 
vn -0.0871557 -0.996195 0 
vn -0.130526 -0.991445 0 
vn -0.173648 -0.984808 0 
vn -0.21644 -0.976296 0 
vn -0.258819 -0.965926 0 
vn -0.300706 -0.953717 0 
vn -0.34202 -0.939693 0 
vn -0.382683 -0.92388 0 
vn -0.422618 -0.906308 0 
vn -0.461749 -0.887011 0 
vn -0.5 -0.866025 0 
vn -0.5373 -0.843391 0 
vn -0.573576 -0.819152 0 
vn -0.608761 -0.793353 0 
vn -0.642788 -0.766044 0 
vn -0.67559 -0.737277 0 
vn -0.707107 -0.707107 0 
vn -0.737277 -0.67559 0 
vn -0.766044 -0.642788 0 
vn -0.793353 -0.608761 0 
vn -0.819152 -0.573576 0 
vn -0.843391 -0.5373 0 
vn -0.866025 -0.5 0 
vn -0.887011 -0.461749 0 
vn -0.906308 -0.422618 0 
vn -0.92388 -0.382683 0 
vn -0.939693 -0.34202 0 
vn -0.953717 -0.300706 0 
vn -0.965926 -0.258819 0 
vn -0.976296 -0.21644 0 
vn -0.984808 -0.173648 0 
vn -0.991445 -0.130526 0 
vn -0.996195 -0.0871557 0 
vn -0.999048 -0.0436194 0 
vn -1 -2.44929e-16 0 
vn 0 0 -1 
usemtl 0.615686_0.811765_0.929412_0.000000_0.000000
o mesh0
f 1//1 2//1 3//1 
f 4//1 5//1 6//1 
f 3//1 7//1 1//1 
f 6//1 8//1 4//1 
f 9//1 10//1 11//1 
f 12//1 13//1 2//1 
f 14//1 15//1 16//1 
f 8//1 17//1 4//1 
f 9//1 18//1 10//1 
f 12//1 19//1 13//1 
f 12//1 9//1 20//1 
f 16//1 21//1 14//1 
f 14//1 22//1 23//1 
f 14//1 4//1 24//1 
f 25//1 26//1 27//1 
f 4//1 28//1 29//1 
f 4//1 30//1 5//1 
f 9//1 12//1 18//1 
f 20//1 19//1 12//1 
f 23//1 15//1 14//1 
f 24//1 31//1 14//1 
f 25//1 32//1 26//1 
f 25//1 33//1 34//1 
f 17//1 28//1 4//1 
f 4//1 14//1 35//1 
f 1//1 12//1 2//1 
f 31//1 22//1 14//1 
f 36//1 37//1 38//1 
f 25//1 39//1 40//1 
f 25//1 41//1 42//1 
f 25//1 43//1 44//1 
f 25//1 45//1 46//1 
f 25//1 47//1 48//1 
f 25//1 49//1 32//1 
f 25//1 50//1 51//1 
f 34//1 52//1 25//1 
f 25//1 36//1 53//1 
f 35//1 30//1 4//1 
f 21//1 9//1 14//1 
f 38//1 54//1 36//1 
f 36//1 25//1 55//1 
f 25//1 56//1 57//1 
f 25//1 58//1 59//1 
f 42//1 39//1 25//1 
f 25//1 60//1 61//1 
f 25//1 62//1 63//1 
f 25//1 64//1 65//1 
f 25//1 66//1 43//1 
f 48//1 45//1 25//1 
f 51//1 49//1 25//1 
f 25//1 67//1 68//1 
f 25//1 69//1 70//1 
f 53//1 33//1 25//1 
f 11//1 14//1 9//1 
f 55//1 37//1 36//1 
f 57//1 71//1 25//1 
f 40//1 58//1 25//1 
f 63//1 60//1 25//1 
f 65//1 72//1 25//1 
f 46//1 66//1 25//1 
f 68//1 50//1 25//1 
f 52//1 69//1 25//1 
f 54//1 4//1 36//1 
f 59//1 56//1 25//1 
f 72//1 62//1 25//1 
f 27//1 47//1 25//1 
f 29//1 36//1 4//1 
f 61//1 41//1 25//1 
f 70//1 67//1 25//1 
f 44//1 64//1 25//1 
f 71//1 73//1 25//1 
o mesh1
f 73//2 74//2 75//2 
f 75//2 25//2 73//2 
o mesh2
f 74//3 73//3 71//4 
f 76//4 71//4 57//5 
f 77//5 57//5 56//6 
f 78//6 56//6 59//7 
f 79//7 59//7 58//8 
f 80//8 58//8 40//9 
f 81//9 40//9 39//10 
f 82//10 39//10 42//11 
f 83//11 42//11 41//12 
f 84//12 41//12 61//13 
f 85//13 61//13 60//14 
f 86//14 60//14 63//15 
f 87//15 63//15 62//16 
f 88//16 62//16 72//17 
f 89//17 72//17 65//18 
f 90//18 65//18 64//19 
f 91//19 64//19 44//20 
f 92//20 44//20 43//21 
f 93//21 43//21 66//22 
f 94//22 66//22 46//23 
f 95//23 46//23 45//24 
f 96//24 45//24 48//25 
f 97//25 48//25 47//26 
f 98//26 47//26 27//27 
f 99//27 27//27 26//28 
f 100//28 26//28 32//29 
f 101//29 32//29 49//30 
f 102//30 49//30 51//31 
f 103//31 51//31 50//32 
f 104//32 50//32 68//33 
f 105//33 68//33 67//34 
f 106//34 67//34 70//35 
f 107//35 70//35 69//36 
f 108//36 69//36 52//37 
f 109//37 52//37 34//38 
f 110//38 34//38 33//39 
f 111//39 33//39 53//40 
f 112//40 53//40 36//41 
f 113//41 36//41 29//42 
f 114//42 29//42 28//43 
f 115//43 28//43 17//44 
f 116//44 17//44 8//45 
f 117//45 8//45 6//46 
f 118//46 6//46 5//47 
f 119//47 5//47 30//48 
f 120//48 30//48 35//49 
f 121//49 35//49 14//50 
f 122//50 14//50 11//51 
f 123//51 11//51 10//52 
f 124//52 10//52 18//53 
f 125//53 18//53 12//54 
f 126//54 12//54 1//55 
f 127//55 1//55 7//56 
f 128//56 7//56 3//57 
f 129//57 3//57 2//58 
f 130//58 2//58 13//59 
f 131//59 13//59 19//60 
f 132//60 19//60 20//61 
f 133//61 20//61 9//62 
f 134//62 9//62 21//63 
f 135//63 21//63 16//64 
f 136//64 16//64 15//65 
f 137//65 15//65 23//66 
f 138//66 23//66 22//67 
f 139//67 22//67 31//68 
f 140//68 31//68 24//69 
f 141//69 24//69 4//70 
f 142//70 4//70 54//71 
f 143//71 54//71 38//72 
f 144//72 38//72 37//73 
f 145//73 37//73 55//74 
f 146//74 55//74 25//75 
f 25//75 75//75 146//74 
f 55//74 146//74 145//73 
f 37//73 145//73 144//72 
f 38//72 144//72 143//71 
f 54//71 143//71 142//70 
f 4//70 142//70 141//69 
f 24//69 141//69 140//68 
f 31//68 140//68 139//67 
f 22//67 139//67 138//66 
f 23//66 138//66 137//65 
f 15//65 137//65 136//64 
f 16//64 136//64 135//63 
f 21//63 135//63 134//62 
f 9//62 134//62 133//61 
f 20//61 133//61 132//60 
f 19//60 132//60 131//59 
f 13//59 131//59 130//58 
f 2//58 130//58 129//57 
f 3//57 129//57 128//56 
f 7//56 128//56 127//55 
f 1//55 127//55 126//54 
f 12//54 126//54 125//53 
f 18//53 125//53 124//52 
f 10//52 124//52 123//51 
f 11//51 123//51 122//50 
f 14//50 122//50 121//49 
f 35//49 121//49 120//48 
f 30//48 120//48 119//47 
f 5//47 119//47 118//46 
f 6//46 118//46 117//45 
f 8//45 117//45 116//44 
f 17//44 116//44 115//43 
f 28//43 115//43 114//42 
f 29//42 114//42 113//41 
f 36//41 113//41 112//40 
f 53//40 112//40 111//39 
f 33//39 111//39 110//38 
f 34//38 110//38 109//37 
f 52//37 109//37 108//36 
f 69//36 108//36 107//35 
f 70//35 107//35 106//34 
f 67//34 106//34 105//33 
f 68//33 105//33 104//32 
f 50//32 104//32 103//31 
f 51//31 103//31 102//30 
f 49//30 102//30 101//29 
f 32//29 101//29 100//28 
f 26//28 100//28 99//27 
f 27//27 99//27 98//26 
f 47//26 98//26 97//25 
f 48//25 97//25 96//24 
f 45//24 96//24 95//23 
f 46//23 95//23 94//22 
f 66//22 94//22 93//21 
f 43//21 93//21 92//20 
f 44//20 92//20 91//19 
f 64//19 91//19 90//18 
f 65//18 90//18 89//17 
f 72//17 89//17 88//16 
f 62//16 88//16 87//15 
f 63//15 87//15 86//14 
f 60//14 86//14 85//13 
f 61//13 85//13 84//12 
f 41//12 84//12 83//11 
f 42//11 83//11 82//10 
f 39//10 82//10 81//9 
f 40//9 81//9 80//8 
f 58//8 80//8 79//7 
f 59//7 79//7 78//6 
f 56//6 78//6 77//5 
f 57//5 77//5 76//4 
f 71//4 76//4 74//3 
o mesh3
f 127//76 130//76 131//76 
f 127//76 128//76 129//76 
f 122//76 140//76 141//76 
f 129//76 130//76 127//76 
f 134//76 123//76 124//76 
f 75//76 117//76 118//76 
f 122//76 139//76 140//76 
f 122//76 137//76 138//76 
f 122//76 135//76 136//76 
f 126//76 132//76 133//76 
f 132//76 126//76 127//76 
f 134//76 122//76 123//76 
f 75//76 116//76 117//76 
f 122//76 143//76 144//76 
f 138//76 139//76 122//76 
f 122//76 134//76 135//76 
f 131//76 132//76 127//76 
f 124//76 125//76 134//76 
f 75//76 115//76 116//76 
f 75//76 98//76 99//76 
f 122//76 145//76 146//76 
f 122//76 142//76 143//76 
f 136//76 137//76 122//76 
f 125//76 126//76 134//76 
f 118//76 119//76 75//76 
f 75//76 113//76 114//76 
f 75//76 109//76 110//76 
f 99//76 100//76 75//76 
f 144//76 145//76 122//76 
f 133//76 134//76 126//76 
f 75//76 120//76 121//76 
f 114//76 115//76 75//76 
f 75//76 111//76 112//76 
f 75//76 108//76 109//76 
f 75//76 102//76 103//76 
f 100//76 101//76 75//76 
f 75//76 96//76 97//76 
f 75//76 94//76 95//76 
f 75//76 91//76 92//76 
f 141//76 142//76 122//76 
f 119//76 120//76 75//76 
f 110//76 111//76 75//76 
f 75//76 106//76 107//76 
f 75//76 104//76 105//76 
f 101//76 102//76 75//76 
f 95//76 96//76 75//76 
f 92//76 93//76 75//76 
f 75//76 82//76 83//76 
f 121//76 122//76 75//76 
f 107//76 108//76 75//76 
f 103//76 104//76 75//76 
f 93//76 94//76 75//76 
f 75//76 89//76 90//76 
f 75//76 86//76 87//76 
f 75//76 84//76 85//76 
f 75//76 81//76 82//76 
f 112//76 113//76 75//76 
f 97//76 98//76 75//76 
f 75//76 88//76 89//76 
f 85//76 86//76 75//76 
f 75//76 80//76 81//76 
f 75//76 78//76 79//76 
f 75//76 76//76 77//76 
f 105//76 106//76 75//76 
f 87//76 88//76 75//76 
f 79//76 80//76 75//76 
f 75//76 74//76 76//76 
f 90//76 91//76 75//76 
f 77//76 78//76 75//76 
f 83//76 84//76 75//76 
f 146//76 75//76 122//76 
